<?xml version="1.0" encoding="UTF-8"?>
<svg width="210px" height="37px" viewBox="0 0 210 37" version="1.1" xmlns="http://www.w3.org/2000/svg" xmlns:xlink="http://www.w3.org/1999/xlink">
    <!-- Generator: sketchtool 50.2 (55047) - http://www.bohemiancoding.com/sketch -->
    <title>0568AFC6-6F48-4862-A09F-543492AFA566</title>
    <desc>Created with sketchtool.</desc>
    <defs></defs>
    <g id="Page-1" stroke="none" stroke-width="1" fill="none" fill-rule="evenodd">
        <g id="Contact-us" transform="translate(-938.000000, -336.000000)" fill="#F15C22">
            <g id="Group-3" transform="translate(900.000000, 310.000000)">
                <g id="logo-livingproof" transform="translate(38.000000, 26.000000)">
                    <path d="M116.1413,14.74 C118.2893,14.74 120.6483,15.028 122.7063,14.296 C124.2693,13.739 125.8393,12.244 126.1963,10.58 C126.6413,8.509 125.9133,6.418 124.2283,5.121 C122.5143,3.802 120.7393,3.932 118.6653,3.932 C116.5223,3.932 114.2323,3.697 112.1043,3.933 C109.7453,4.196 109.8723,6.387 109.8683,8.231 C109.8653,9.421 109.8643,10.61 109.8653,11.8 C109.8663,12.567 109.6163,13.938 110.2703,14.526 C110.8283,15.028 111.9383,14.745 112.6163,14.74 C113.7913,14.733 114.9663,14.74 116.1413,14.74 M125.0043,1.1 C125.7823,1.602 126.1653,1.774 126.6833,2.204 C127.7503,3.094 128.5773,4.129 129.2103,5.353 C130.4533,7.757 130.4673,11.006 129.1943,13.406 C127.9593,15.736 125.5663,17.771 122.9213,18.149 C121.6003,18.338 120.3863,18.539 119.0413,18.535 C117.2843,18.53 115.5263,18.532 113.7693,18.53 C112.8143,18.529 110.6783,18.005 110.0863,19.014 C109.7533,19.582 109.8693,20.437 109.8763,21.056 C109.8883,21.91 109.9243,22.765 109.9133,23.619 C109.8993,24.827 109.8703,25.914 108.8773,26.72 C107.9213,27.496 106.5023,27.066 106.1473,25.86 C105.9623,25.229 106.1173,24.452 106.1203,23.803 C106.1243,23.065 106.1213,22.328 106.1213,21.59 C106.1223,19.746 106.1223,17.902 106.1223,16.058 C106.1233,12.648 106.0713,9.233 106.1243,5.824 C106.1493,4.162 106.7233,2.795 108.0063,1.669 C108.5153,1.222 109.1433,0.959 109.6743,0.534 C110.1683,0.137 111.5283,0.133 112.0733,0.133 C115.9193,0.133 123.4373,0.09 125.0043,1.1" id="Fill-1"></path>
                    <path d="M209.9044,1.6228 C210.1164,2.2028 209.9594,2.7148 209.5894,3.1648 C208.8814,4.0258 207.1024,3.8248 205.6254,3.9618 C202.9764,4.2078 201.2244,6.8688 201.1094,9.3228 C201.0384,10.8388 201.1104,12.3628 201.1004,13.8798 C201.0964,14.5048 200.9224,15.4258 201.2094,16.0118 C201.5334,16.6758 202.2204,16.6038 202.8514,16.6108 C204.6174,16.6298 209.5624,15.7678 209.4504,18.6918 C209.4124,19.6898 208.6154,20.2858 207.6684,20.4328 C206.0994,20.6758 204.3434,20.3308 202.7464,20.3938 C202.0724,20.4198 201.5144,20.3828 201.2224,21.0568 C201.0064,21.5558 201.0944,22.3198 201.0944,22.8438 C201.0934,24.0398 201.5434,26.0028 200.3484,26.7568 C199.3244,27.4018 198.2644,27.0448 197.6184,26.0478 C196.8784,24.9028 197.3084,22.6918 197.3094,21.3778 C197.3134,18.0188 197.3094,14.6588 197.3084,11.2998 C197.3084,9.4978 197.2594,7.7948 197.8684,6.0708 C198.4274,4.4868 199.3544,3.3358 200.6034,2.2358 C201.0914,1.8058 201.5314,1.4728 202.1024,1.1428 C203.5034,0.3328 205.5414,0.1328 206.3354,0.1328 C207.3204,0.1328 209.3594,0.1328 209.9044,1.6228" id="Fill-3"></path>
                    <path d="M3.5963,1.698 C3.6163,2.355 3.6523,3.101 3.6453,3.75 C3.6303,5.292 3.6193,6.835 3.6113,8.378 C3.5953,11.311 3.5203,14.257 3.5913,17.19 C3.6543,19.825 4.5543,21.961 7.0703,23.018 C8.3733,23.566 9.5723,23.528 10.9733,23.524 C12.4363,23.521 13.8983,23.523 15.3613,23.522 C16.4813,23.521 17.9773,23.748 17.9763,25.36 C17.9763,26.737 16.6903,27.175 15.6523,27.28 C13.0833,27.54 10.1883,27.485 7.6473,27.05 C5.2763,26.642 3.4453,25.694 1.8653,23.871 C0.0243,21.748 0.0323,19.231 0.0383,16.559 C0.0463,13.214 0.0443,9.869 0.0423,6.524 C0.0413,5.724 0.0403,4.925 0.0403,4.125 C0.0393,3.403 0.0143,2.557 0.0003,1.838 C-0.0457,-0.514 3.5263,-0.66 3.5963,1.698" id="Fill-5"></path>
                    <path d="M92.0123,23.53 C94.0723,23.53 95.9503,23.185 97.4243,21.653 C98.8913,20.128 98.9853,17.978 98.8723,15.951 C98.7673,14.082 98.5063,12.403 96.9983,11.136 C95.3463,9.751 93.5053,9.757 91.4643,9.746 C89.5743,9.736 87.7703,10.157 86.4623,11.631 C85.1543,13.105 84.9503,14.972 84.9553,16.876 C84.9613,18.853 85.3963,20.523 86.8573,21.91 C88.2893,23.269 90.1173,23.529 92.0123,23.53 M102.5103,21.267 C102.5103,23.177 102.5053,25.089 102.5093,26.999 C102.5133,28.829 102.3373,30.186 101.4863,31.827 C100.7773,33.192 99.2033,34.427 97.9033,35.187 C96.3963,36.066 94.7063,36.219 92.9843,36.186 C91.6083,36.16 89.6813,35.671 90.2433,33.829 C90.8003,32.004 92.8523,32.492 94.2703,32.384 C96.0483,32.251 97.2713,31.153 98.2083,29.707 C98.6993,28.95 99.6623,25.463 97.9083,26.066 C97.2523,26.292 96.6493,26.627 95.9583,26.823 C95.1403,27.055 94.2633,27.131 93.4243,27.261 C91.7073,27.529 89.8253,27.246 88.1373,26.892 C85.0113,26.236 82.0463,23.384 81.5883,20.178 C81.3453,18.47 81.0413,16.734 81.2503,15 C81.4633,13.234 81.7953,11.7 82.6983,10.174 C84.3473,7.384 87.7583,6.051 90.8623,5.985 C94.6913,5.906 98.5393,6.506 100.9283,9.826 C102.0713,11.415 102.5003,12.966 102.5043,14.896 C102.5053,15.447 102.5023,21.267 102.5103,21.267" id="Fill-8"></path>
                    <path d="M153.757,16.4822 C153.753,16.4822 153.758,18.4382 153.776,18.6282 C153.848,19.4042 154.186,20.1802 154.549,20.8652 C155.219,22.1312 156.687,22.8132 157.97,23.2922 C159.246,23.7682 161.284,23.7092 162.629,23.5102 C164.04,23.3022 165.57,22.4202 166.433,21.2872 C168.105,19.0912 168.016,15.5672 167.008,13.1602 C166.362,11.6152 165.489,10.9132 163.971,10.2392 C162.519,9.5942 161.009,9.7042 159.434,9.7222 C157.728,9.7432 156.22,10.4822 155.062,11.7132 C153.796,13.0622 153.757,14.7442 153.757,16.4822 M149.961,16.6662 C149.961,14.1692 150.106,11.8712 151.699,9.8092 C152.309,9.0202 153.081,8.2362 153.882,7.6382 C154.898,6.8812 156.001,6.6242 157.211,6.3192 C161.408,5.2602 166.828,5.9602 169.491,9.7012 C170.789,11.5242 171.397,13.5472 171.391,15.7902 C171.384,18.1222 171.398,20.4022 170.2,22.4912 C167.854,26.5832 162.984,27.9252 158.507,27.1462 C157.144,26.9092 155.718,26.7122 154.545,25.9662 C153.494,25.2972 152.584,24.6142 151.83,23.6052 C151.097,22.6262 150.481,21.4892 150.162,20.3022 C150.083,20.0082 149.83,16.6662 149.961,16.6662" id="Fill-10"></path>
                    <path d="M184.3693,9.7361 C184.3693,9.7061 182.1303,9.7601 181.8943,9.8151 C181.0743,10.0071 180.1773,10.5231 179.5073,11.0251 C177.8103,12.2971 177.4493,14.2781 177.4513,16.2661 C177.4523,17.2771 177.3053,18.3521 177.6563,19.3021 C178.0213,20.2941 178.4363,21.1991 179.2083,21.9171 C180.4783,23.0981 182.1203,23.5281 183.8103,23.5331 C185.7233,23.5401 187.7003,23.5321 189.2323,22.1991 C190.8003,20.8341 191.2473,19.3581 191.2583,17.3331 C191.2703,15.2721 191.4283,13.1831 189.8413,11.6021 C189.1253,10.8891 188.2753,10.3751 187.3343,10.0171 C186.3613,9.6481 185.3963,9.7361 184.3693,9.7361 M195.0413,16.6011 C195.0413,18.9881 194.9573,21.1201 193.5163,23.1321 C192.1943,24.9801 190.4153,26.3131 188.1803,26.8331 C183.5483,27.9101 178.2213,27.3201 175.2463,23.2491 C173.8143,21.2881 173.6573,18.9771 173.6563,16.6351 C173.6553,14.3691 173.7903,12.0931 175.1133,10.1501 C177.6753,6.3881 182.5793,5.3761 186.8683,6.0841 C189.4173,6.5041 191.5473,7.5771 193.1713,9.6281 C193.9933,10.6651 194.4553,11.7741 194.8333,13.0321 C194.9403,13.3881 195.1923,16.6011 195.0413,16.6011" id="Fill-12"></path>
                    <path d="M57.0954,19.5515 C57.0954,16.0845 56.5484,12.3055 58.9874,9.4735 C61.0744,7.0505 63.9014,5.9405 67.0854,5.9635 C68.9484,5.9775 70.5274,6.1505 72.3364,6.6135 C73.9944,7.0375 75.2974,8.1755 76.4084,9.4485 C78.8864,12.2855 78.3634,16.1775 78.3624,19.6665 L78.3614,22.7315 C78.3604,23.6235 78.4954,24.6435 78.3284,25.5215 C78.0544,26.9555 76.3954,27.6735 75.3044,26.6225 C74.1214,25.4835 74.5754,23.2555 74.5764,21.7715 C74.5774,19.6885 74.5874,17.6045 74.5804,15.5215 C74.5684,11.9925 71.8554,9.6715 68.3974,9.7345 C66.7274,9.7655 65.3874,9.6895 63.8544,10.4305 C62.4704,11.1005 61.4394,12.3155 61.0164,13.8045 C60.4804,15.6895 60.8134,18.0105 60.8134,19.9525 C60.8124,21.1135 60.8154,22.2755 60.8254,23.4365 C60.8324,24.2845 61.0184,25.3435 60.5864,26.1155 C59.7734,27.5695 57.4434,27.3265 57.1024,25.6415 C56.9834,25.0505 57.1604,19.5515 57.0954,19.5515" id="Fill-14"></path>
                    <path d="M47.5836,7.9988 C47.5516,8.8488 46.9706,9.3788 46.7226,10.1458 C46.4476,10.9988 46.0186,11.7438 45.7116,12.5828 C45.4636,13.2568 45.1446,13.8978 44.8966,14.5688 C44.6066,15.3528 44.1636,16.0398 43.8856,16.8228 C43.3266,18.3998 42.6296,19.9108 41.9566,21.4418 C41.3686,22.7808 41.0346,24.3928 40.0226,25.4848 C37.7826,27.9038 33.8426,27.5198 32.0796,24.7738 C31.2296,23.4488 30.8386,21.7828 30.1526,20.3588 C29.4966,18.9988 29.0316,17.5618 28.4356,16.1818 C28.1546,15.5348 27.8446,14.9018 27.5646,14.2518 C27.2146,13.4378 26.9446,12.6258 26.6196,11.8108 C26.1256,10.5678 24.9686,9.1988 25.0436,7.7998 C25.1296,6.2028 27.1206,5.6368 28.1826,6.6678 C29.1626,7.6188 29.4956,9.3468 30.0446,10.5698 C30.7086,12.0488 31.3466,13.5458 31.9766,15.0408 C32.2706,15.7388 32.5206,16.4588 32.8496,17.1428 C33.2076,17.8858 33.3616,18.7278 33.7616,19.4368 C34.1396,20.1078 34.3776,20.8088 34.7036,21.5068 C34.9636,22.0648 35.2846,23.0858 35.8806,23.3568 C37.1616,23.9418 37.9256,21.7348 38.2006,20.8508 C38.6996,19.2458 39.5556,17.6268 40.2056,16.0708 C40.8796,14.4548 41.4826,12.6648 42.2976,11.1188 C42.6906,10.3728 43.0046,9.5808 43.3326,8.7938 C43.6396,8.0548 43.7496,7.2588 44.3476,6.6848 C45.6486,5.4338 47.3356,6.3688 47.5836,7.9988" id="Fill-16"></path>
                    <path d="M131.3727,19.7371 C131.3727,17.1441 131.1727,14.5291 131.7787,11.9941 C132.2817,9.8921 134.3107,8.1121 136.1067,7.0681 C136.9987,6.5491 138.1727,6.3111 139.1877,6.1581 C140.5357,5.9561 141.9347,5.8781 143.2337,6.0811 C145.3757,6.4151 147.8627,7.1391 149.1407,9.0531 C149.7747,10.0041 149.3507,11.0471 148.3917,11.5931 C147.3557,12.1851 146.5447,11.5331 145.6767,10.9511 C143.7597,9.6631 141.0057,9.2011 138.8117,10.0701 C137.0717,10.7591 135.5367,12.1701 135.1837,14.0751 C134.9677,15.2381 135.1107,16.5321 135.1087,17.7101 C135.1067,19.1311 135.1077,20.5521 135.1097,21.9741 C135.1117,23.1101 135.3887,24.5451 134.9887,25.6291 C134.6167,26.6351 133.5117,27.4531 132.4307,26.9711 C131.2117,26.4281 131.3677,25.1711 131.3687,24.0541 C131.3687,23.6831 131.3637,19.7371 131.3727,19.7371" id="Fill-18"></path>
                    <path d="M49.6701,16.7576 C49.6701,14.5926 49.6701,12.4286 49.6701,10.2646 C49.6701,8.8696 49.3421,6.3116 51.5011,6.2996 C53.4531,6.2896 53.4591,8.4566 53.4651,9.8296 C53.4741,11.9876 53.4661,14.1466 53.4671,16.3046 C53.4681,18.4806 53.4701,20.6556 53.4731,22.8326 C53.4751,24.3326 53.8211,26.9436 51.6631,27.1556 C50.8961,27.2326 49.8521,26.4856 49.6801,25.7366 C49.4791,24.8616 49.6751,23.7346 49.6761,22.8356 C49.6761,22.2136 49.6811,16.7576 49.6701,16.7576" id="Fill-20"></path>
                    <path d="M22.82,16.7752 C22.82,18.9832 22.811,21.1922 22.82,23.4002 C22.824,24.7842 22.906,27.5682 20.569,27.0392 C18.609,26.5952 19.039,23.9832 19.034,22.4652 C19.027,20.2432 19.025,18.0212 19.024,15.7982 C19.023,13.6512 19.02,11.5042 19.016,9.3572 C19.015,8.6632 18.865,7.7432 19.293,7.1372 C19.552,6.7702 20.131,6.2752 20.979,6.2752 C21.914,6.2752 22.653,6.8422 22.755,7.3752 C22.925,8.2622 22.82,9.8332 22.82,10.7322 C22.82,11.3442 22.819,16.7752 22.82,16.7752" id="Fill-22"></path>
                    <path d="M23.0333,3.2322 C23.0333,4.3892 22.0963,5.3272 20.9393,5.3272 C19.7833,5.3272 18.8453,4.3892 18.8453,3.2322 C18.8453,2.0762 19.7833,1.1382 20.9393,1.1382 C22.0963,1.1382 23.0333,2.0762 23.0333,3.2322" id="Fill-24"></path>
                    <path d="M53.6359,3.2322 C53.6359,4.3892 52.6989,5.3272 51.5419,5.3272 C50.3859,5.3272 49.4479,4.3892 49.4479,3.2322 C49.4479,2.0762 50.3859,1.1382 51.5419,1.1382 C52.6989,1.1382 53.6359,2.0762 53.6359,3.2322" id="Fill-26"></path>
                </g>
            </g>
        </g>
    </g>
</svg>