<?xml version="1.0" encoding="UTF-8"?>
<svg width="74px" height="74px" viewBox="0 0 74 74" version="1.1" xmlns="http://www.w3.org/2000/svg" xmlns:xlink="http://www.w3.org/1999/xlink">
    <!-- Generator: sketchtool 50.2 (55047) - http://www.bohemiancoding.com/sketch -->
    <title>F8784935-FA97-4455-B32C-C178245E819F</title>
    <desc>Created with sketchtool.</desc>
    <defs></defs>
    <g id="Page-1" stroke="none" stroke-width="1" fill="none" fill-rule="evenodd">
        <g id="Pricing-page" transform="translate(-465.000000, -3631.000000)">
            <g id="icon-varies-with-oval" transform="translate(466.000000, 3632.000000)">
                <circle id="Oval-Copy" stroke="#F15C22" stroke-width="2" cx="36" cy="36" r="36"></circle>
                <g id="icon-varies" transform="translate(11.000000, 21.000000)" fill="#F15C22" fill-rule="nonzero">
                    <path d="M36.0680442,8.64707535 L39.5420039,8.64910653 L39.5378165,10.4324873 C39.5372931,10.7808356 39.7283425,11.1032863 40.0392559,11.278476 C40.3496458,11.4526502 40.733315,11.453158 41.0447518,11.2799994 L49.495419,6.56561811 C49.8073792,6.39195176 49.9994755,6.07000887 49.9999989,5.72166058 C50.0005224,5.37331228 49.8094729,5.05136939 49.4990829,4.87617965 L41.0656887,0.13183836 C40.7542519,-0.043351381 40.3716296,-0.0438591773 40.0601928,0.129807174 C39.748756,0.303473526 39.5566597,0.625416411 39.5556129,0.973764707 L39.5524723,2.74952854 L36.0685677,2.74749736 C30.7129017,2.74749736 26.8144459,7.55582099 23.0442288,12.20622 C19.8989789,16.0873075 16.6459039,20.0999142 13.578644,20.0999142 L1.00549592,20.0999142 C0.450143932,20.100422 0,20.5366191 0,21.0758988 L0,25.0240154 C0,25.5632951 0.450143932,26 1.00549592,26 L13.5775972,26 C19.5969637,26 23.9665004,20.6117729 27.8215121,15.8557523 C30.6951053,12.3118416 33.6655319,8.64707535 36.0680442,8.64707535 Z" id="Shape"></path>
                    <path d="M48.5083453,23.2390797 L40.2656153,18.3851259 C39.9618418,18.2057759 39.5876131,18.2057759 39.2848607,18.3866946 C38.9815976,18.5665675 38.7952491,18.8986003 38.7957597,19.2578232 L38.799844,21.0942 L35.4123858,21.0962915 C33.6356933,21.0962915 31.4720086,18.7579439 29.9985792,17 L26,21.549634 C28.2678356,24.1666801 31.3882794,27.1717078 35.4128964,27.1717078 L38.8100549,27.1696163 L38.8131182,28.9976269 C38.8136287,29.3568498 39.0015088,29.687314 39.3052824,29.866664 C39.4564034,29.9555547 39.6248828,30 39.7938728,30 C39.9638839,30 40.133895,29.9550318 40.2860371,29.8640496 L48.5114085,24.9787225 C48.8146715,24.7988497 49.0005095,24.4668168 48.999999,24.1081168 C48.9994884,23.7499397 48.8121188,23.4189526 48.5083453,23.2390797 Z" id="Shape"></path>
                    <path d="M13.6784286,3 L1.01296304,3 C0.453486839,3 0,3.4405512 0,3.98355617 L0,7.96695866 C0,8.5104759 0.453486839,8.9510271 1.01296304,8.9510271 L13.6784286,8.9510271 C15.9674825,8.9510271 18.3361603,11.2618718 19.9191458,13 L24,8.52123354 C21.7483851,6.1514779 18.228589,3 13.6784286,3 Z" id="Shape"></path>
                </g>
            </g>
        </g>
    </g>
</svg>