<?xml version="1.0" encoding="UTF-8"?>
<svg width="74px" height="74px" viewBox="0 0 74 74" version="1.1" xmlns="http://www.w3.org/2000/svg" xmlns:xlink="http://www.w3.org/1999/xlink">
    <!-- Generator: sketchtool 50.2 (55047) - http://www.bohemiancoding.com/sketch -->
    <title>86EDEFAC-D480-4A7E-A6DB-EFFFD081E757</title>
    <desc>Created with sketchtool.</desc>
    <defs></defs>
    <g id="Page-1" stroke="none" stroke-width="1" fill="none" fill-rule="evenodd">
        <g id="Pricing" transform="translate(-933.000000, -577.000000)">
            <g id="Group-3" transform="translate(240.000000, 548.000000)">
                <g id="Group-2-Copy" transform="translate(500.000000, 0.000000)">
                    <g id="fitness-icon" transform="translate(194.000000, 30.000000)">
                        <circle id="Oval" stroke="#F15C22" stroke-width="2" cx="36" cy="36" r="36"></circle>
                        <path d="M50.2679726,21.7982633 C50.2207069,24.639474 49.7840497,27.3304384 48.8834289,29.9231977 C45.5369889,39.5581872 38.9659468,45.8510226 29.1961397,48.8042751 C28.8213198,48.9175415 28.6018892,48.8370918 28.3430296,48.5751709 C26.738198,46.9497677 25.1244275,45.3330584 23.4966978,43.7307983 C23.2134706,43.4518569 23.1375515,43.2173649 23.2617159,42.824055 C26.8581991,31.4397427 34.4939452,24.5426159 46.1996891,22.1880221 C47.3723941,21.9521832 48.5863648,21.9218155 49.7814782,21.8002225 C49.9178877,21.7862632 50.0567461,21.7982633 50.2679726,21.7982633 Z M27.0030454,33.1495386 C26.2483852,34.4328161 25.4410714,35.703971 24.7396769,37.0310857 C24.1892635,38.0722792 23.7761168,39.1854735 23.2859488,40.2593612 C23.1999888,40.4473222 23.0659059,40.6981001 22.8996186,40.7518557 C20.6459237,41.4814137 18.6098228,42.606608 16.7562949,44.0944997 C15.6431007,39.7598871 22.1058968,32.9067199 27.0030454,33.1495386 Z M38.937269,44.9846266 C38.4332642,51.1657874 33.0595397,55.3681538 27.9680627,55.3803988 C28.0453288,55.2447241 28.0955333,55.1223964 28.1743912,55.022722 C29.5275877,53.3100118 30.5319238,51.4117897 31.2436041,49.3500966 C31.3182986,49.1339721 31.5185046,48.8770717 31.7209147,48.8016424 C34.2193874,47.8700417 36.5478994,46.6265605 38.7197976,45.0840561 C38.7669409,45.0503823 38.8265741,45.0343413 38.937269,44.9846266 Z" id="Combined-Shape" fill="#F15C22"></path>
                    </g>
                </g>
            </g>
        </g>
    </g>
</svg>