<?xml version="1.0" encoding="UTF-8"?>
<svg width="74px" height="74px" viewBox="0 0 74 74" version="1.1" xmlns="http://www.w3.org/2000/svg" xmlns:xlink="http://www.w3.org/1999/xlink">
    <!-- Generator: sketchtool 50.2 (55047) - http://www.bohemiancoding.com/sketch -->
    <title>FE36BA36-179F-4A59-AA5C-650140E6D89B</title>
    <desc>Created with sketchtool.</desc>
    <defs></defs>
    <g id="Page-1" stroke="none" stroke-width="1" fill="none" fill-rule="evenodd">
        <g id="Pricing-page" transform="translate(-683.000000, -3631.000000)">
            <g id="icon-gift-with-oval" transform="translate(684.000000, 3632.000000)">
                <circle id="Oval-Copy" stroke="#F15C22" stroke-width="2" cx="36" cy="36" r="36"></circle>
                <path d="M38.1022044,25.831654 C40.5858413,25.5720686 42.8109844,25.3582802 44.6623593,23.9725065 C45.1575662,23.6017595 45.7006499,22.7659654 45.6141428,22.2478355 C45.4723616,21.3995513 44.4967425,21.3291906 43.746124,21.4026739 C43.1161222,21.4642916 42.4596136,21.6379036 41.8955709,21.9247589 C40.2957035,22.7393199 39.2276184,24.1161424 38.1022044,25.831654 Z M33.8569873,25.8062575 C32.461778,23.7310318 31.1388976,21.942245 28.7483431,21.4601282 C27.5697098,21.2221923 26.4272409,21.5621305 26.3006652,22.2278514 C26.0898427,23.3380108 26.9649821,23.8207521 27.7190938,24.2678968 C29.5338932,25.3445411 31.5609536,25.6247351 33.8569873,25.8062575 Z M44.9097573,19 C45.2853748,19.1517544 45.668184,19.2874799 46.0353768,19.4581775 C48.0928482,20.4140845 48.7947679,22.8117623 47.3245584,24.5447601 C46.4884602,25.5306432 45.3311968,26.3639393 44.1564676,26.9045513 C40.4635807,28.6048667 36.5035699,28.6679416 32.5733536,28.2235031 C30.6025948,28.0007635 28.6507401,27.3648106 26.76505,26.6988815 C25.4863479,26.2473653 24.5473042,25.2233874 24.1022345,23.8453159 C23.4853835,21.9362082 24.2655911,20.1905122 26.0943633,19.4213318 C26.4687479,19.2637487 26.8566941,19.1396807 27.238476,19 L29.0877961,19 C32.1981471,19.8534884 34.2693857,22.0101078 35.9765136,24.7908145 C37.6910389,22.0340471 39.7341267,19.8409983 42.8549571,19 L44.9097573,19 Z M29.3728997,37.8687961 L22.0156877,37.8687961 C21.4547273,37.8687961 21,37.4079123 21,36.8398222 L21,31.2704983 C21,30.7019917 21.4547273,30.2413162 22.0156877,30.2413162 L29.3728997,30.2413162 C29.9338601,30.2413162 30.3885874,30.7019917 30.3885874,31.2704983 L30.3885874,36.8398222 C30.3885874,37.4079123 29.9338601,37.8687961 29.3728997,37.8687961 Z M49.9843123,37.8687961 L34.3721462,37.8687961 C33.8111858,37.8687961 33.3564585,37.4079123 33.3564585,36.8398222 L33.3564585,31.2704983 C33.3564585,30.7019917 33.8111858,30.2413162 34.3721462,30.2413162 L49.9843123,30.2413162 C50.5452727,30.2413162 51,30.7019917 51,31.2704983 L51,36.8398222 C51,37.4079123 50.5452727,37.8687961 49.9843123,37.8687961 Z M47.5902852,53 L34.3721668,53 C33.8112063,53 33.3564791,52.5393244 33.3564791,51.9710261 L33.3564791,41.0984169 C33.3564791,40.5303267 33.8112063,40.069443 34.3721668,40.069443 L47.5902852,40.069443 C48.1512456,40.069443 48.6059729,40.5303267 48.6059729,41.0984169 L48.6059729,51.9710261 C48.6059729,52.5393244 48.1512456,53 47.5902852,53 Z M29.3728997,53 L24.5141192,53 C23.9531588,53 23.498226,52.5393244 23.498226,51.9710261 L23.498226,41.0984169 C23.498226,40.5303267 23.9531588,40.069443 24.5141192,40.069443 L29.3728997,40.069443 C29.9338601,40.069443 30.3885874,40.5303267 30.3885874,41.0984169 L30.3885874,51.9710261 C30.3885874,52.5393244 29.9338601,53 29.3728997,53 Z" id="icon-gift" fill="#F15C22"></path>
            </g>
        </g>
    </g>
</svg>