<?xml version="1.0" encoding="UTF-8"?>
<svg width="74px" height="74px" viewBox="0 0 74 74" version="1.1" xmlns="http://www.w3.org/2000/svg" xmlns:xlink="http://www.w3.org/1999/xlink">
    <!-- Generator: sketchtool 50.2 (55047) - http://www.bohemiancoding.com/sketch -->
    <title>73F7B968-EE82-40B3-996C-47235F4C33D2</title>
    <desc>Created with sketchtool.</desc>
    <defs></defs>
    <g id="Page-1" stroke="none" stroke-width="1" fill="none" fill-rule="evenodd">
        <g id="Pricing" transform="translate(-433.000000, -577.000000)">
            <g id="Group-3" transform="translate(240.000000, 548.000000)">
                <g id="Group-2">
                    <g id="starter-icon" transform="translate(194.000000, 30.000000)">
                        <circle id="Oval" stroke="#F15C22" stroke-width="2" cx="36" cy="36" r="36"></circle>
                        <path d="M16,56.5553765 C17.5214937,55.2492982 19.4118142,54.9493409 21.2624507,54.7023374 C24.2320729,54.3063801 27.2240382,54.0851701 30.2074998,53.7999032 C30.8387738,53.7396043 31.4740495,53.7221808 32.2000313,53.679647 C29.8226661,38.1249139 33.6204811,24.3060384 43.0939262,12.0527146 C36.5859349,25.2668925 34.0653409,39.0140242 37.6147147,53.6167858 C39.8803647,53.7457537 42.0529744,53.7599317 44.1974051,54.0182093 C47.0573131,54.3630918 49.8993799,54.8736683 52.7394459,55.3704085 C53.3241997,55.472558 53.9007833,55.7675616 54.4211759,56.0789637 C55.2236908,56.5591345 55.2428658,57.2085865 54.3909961,57.5954904 C53.2861832,58.0971843 52.1166756,58.5160313 50.9338289,58.7592769 C45.7910968,59.8168142 40.5741659,60.0045438 35.3465636,59.9999317 C30.2300096,59.9953196 25.1271281,59.7804299 20.0909422,58.7667929 C18.6326426,58.4733267 17.1341589,58.2119744 16,57.067832 L16,56.5553765 Z M56.1632653,30.6097427 C55.8210762,32.0082186 55.559513,33.4315807 55.1197512,34.8001596 C54.2054781,37.6448796 52.6826596,40.1305022 50.1974664,41.9530471 C47.2697726,44.1001159 43.910876,44.5485702 40.3756638,44.2380761 C39.953876,44.2008302 39.5355117,44.1243341 38.9326153,44.040823 C39.1443651,43.4215052 39.2862734,42.8416045 39.5343135,42.3088041 C40.6866981,39.8318667 42.5912483,37.9692365 44.7886877,36.376681 C45.8585635,35.6015315 47.0034163,34.9249251 48.2299219,34.1285638 C45.9879757,34.4915028 44.0151247,35.1998434 42.1653521,36.25559 C40.3219133,37.3076621 38.8271683,38.722172 37.5510204,40.5732777 C38.6099407,33.796524 43.3045559,29.7143374 50.1401211,29.6338327 C52.1456675,29.6104496 54.1554935,29.9404853 56.1632653,30.1086765 L56.1632653,30.6097427 Z M31.3467958,28.6530612 C28.1996277,28.1936264 25.7251762,26.9428038 24.0299233,24.4664883 C22.2649481,21.8886873 21.812616,19.0070959 21.8847544,15.9183673 C25.0372725,16.1030078 27.9540464,16.6089361 30.4172802,18.4616733 C32.9015687,20.330075 33.758083,22.8942113 33.6181207,25.862457 C32.356216,23.481628 30.5411926,21.6468882 28.0791669,20.3977321 C30.2113923,22.7467322 31.2032093,25.4878435 31.3467958,28.6530612 Z" id="starte-icon" fill="#F15C22"></path>
                    </g>
                </g>
            </g>
        </g>
    </g>
</svg>