<?xml version="1.0" encoding="UTF-8"?>
<svg width="74px" height="74px" viewBox="0 0 74 74" version="1.1" xmlns="http://www.w3.org/2000/svg" xmlns:xlink="http://www.w3.org/1999/xlink">
    <!-- Generator: sketchtool 50.2 (55047) - http://www.bohemiancoding.com/sketch -->
    <title>10A9A63A-9A68-4EF8-80DC-E4938DA01BC9</title>
    <desc>Created with sketchtool.</desc>
    <defs></defs>
    <g id="Page-1" stroke="none" stroke-width="1" fill="none" fill-rule="evenodd">
        <g id="Pricing-page" transform="translate(-901.000000, -3631.000000)">
            <g id="icon-shield-with-oval" transform="translate(902.000000, 3632.000000)">
                <circle id="Oval-Copy-2" stroke="#F15C22" stroke-width="2" cx="36" cy="36" r="36"></circle>
                <path d="M27.4265549,36.6765114 C27.4365993,36.9897073 27.5598109,37.2620168 27.7927744,37.4927752 C29.7352308,39.417823 31.6747409,41.3455965 33.6171303,43.2707108 C34.1245073,43.7735128 34.7837559,43.773114 35.2916686,43.2653922 C36.438875,42.1185807 37.590434,40.9759576 38.7230425,39.8151184 C40.8803155,37.6041988 43.0262049,35.3823097 45.1754424,33.1636781 C45.683556,32.639203 45.6759892,31.9826285 45.1619159,31.4698542 C44.6856766,30.9948415 44.2073614,30.5219563 43.7323944,30.0456805 C43.1637464,29.4753994 42.5130691,29.4770614 41.9524567,30.0551874 C39.5040295,32.5796353 37.056071,35.1044821 34.6078447,37.6291295 C34.4476027,37.7944033 34.447201,37.7944033 34.2855528,37.6340491 C33.1842829,36.5420851 32.0839504,35.4491904 30.9816091,34.3582901 C30.4729598,33.8550227 29.8115684,33.8493052 29.3043253,34.3471876 C28.7885779,34.8535132 28.279192,35.3662875 27.7673955,35.8764691 C27.5488959,36.0941971 27.4346574,36.3564014 27.4265549,36.6765114 M21.0028151,28.5937839 C21.0028821,26.8818768 21.0045562,25.1699698 21.0000027,23.4581292 C20.9996009,23.3063512 21.0439972,23.2021077 21.1623205,23.1027839 C22.0766973,22.3353177 23.110067,21.761646 24.1862928,21.256916 C25.1550434,20.8027121 26.1580789,20.4338709 27.1875648,20.1466695 C27.9692213,19.9286755 28.7633999,19.7503048 29.558516,19.5854299 C31.0736159,19.2713032 32.6084699,19.0996472 34.1547075,19.0490545 C35.2023403,19.0147499 36.2523837,18.9805782 37.2992798,19.0130878 C38.2789453,19.04347 39.2589457,19.1352149 40.2330533,19.2489654 C41.1230556,19.35281 42.0124553,19.4877681 42.8894669,19.6695294 C45.1532777,20.1386916 47.3286976,20.8633435 49.3219788,22.0522381 C49.8549356,22.3700877 50.3441657,22.7602695 50.8538194,23.1168115 C50.9633705,23.1933986 51.0002001,23.2932543 50.9999992,23.4287443 C50.9959814,26.3428422 51.0028786,29.2569401 50.9924324,32.1709715 C50.9886155,33.2125423 50.896006,34.2495923 50.748353,35.282188 C50.575656,36.4902293 50.3027827,37.6745366 49.9160726,38.8311874 C49.2727612,40.7553709 48.3470676,42.5380811 47.1520498,44.182642 C45.787817,46.0601553 44.1517153,47.6742011 42.3249706,49.1045576 C41.106181,50.0589707 39.8204286,50.9161208 38.4771552,51.6858474 C37.6865256,52.1388546 36.8752715,52.5564934 36.0710485,52.985966 C36.0330136,53.0063095 35.9651133,53.0036502 35.9253374,52.9837057 C34.4023359,52.2202948 32.9216548,51.3839535 31.5088071,50.432665 C29.3518019,48.980303 27.3867121,47.3126064 25.7237583,45.3106392 C24.3199505,43.6208041 23.2008015,41.7637672 22.4052167,39.7167918 C21.9729719,38.6046838 21.6439168,37.4630579 21.4181853,36.2941744 C21.1095538,34.6958183 20.9890208,33.0795786 21.0014759,31.4524359 C21.0087748,30.4995519 21.0028151,29.5466679 21.0028151,28.5937839" id="icon-shield" fill="#F15C22"></path>
            </g>
        </g>
    </g>
</svg>